<?xml version="1.0" encoding="UTF-8"?>
<svg id="Layer_2" data-name="Layer 2" xmlns="http://www.w3.org/2000/svg" viewBox="0 0 149.48 129.95">
  <defs>
    <style>
      .cls-1 {
        fill: #312947;
      }

      .cls-2 {
        fill: #fff;
      }
    </style>
  </defs>
  <g id="Layer_2-2" data-name="Layer 2">
    <g>
      <path class="cls-1" d="M88.22,123.8l-21.97-1.26-34.24,5.82c-3.18.54-6.14.73-9.21-.22-7.16-2.2-12.28-8.34-13.34-15.75l-4.91-34.38L.16,47.71c-1.28-8.84,5.11-17.08,13.75-18.68l9.65-1.55,3.21-14.97C29.25,3.63,38.07-1.54,46.99.41l78.09,17.11c6.91,1.51,18.49,9.31,21.52,15.86,2.12,4.59,3.62,9.61,2.5,14.77l-4.69,21.76-10.02,46.71c-.86,4-3.34,7.36-6.42,9.81-4.17,3.31-9.29,4.2-14.46,3.04l-25.28-5.67ZM83.14,107.24l26.14,5.87c4.91.3,9.04-3.13,9.69-7.99l14.01-67.51c.21-4.65-2.51-8.81-6.9-10.36L46.2,9.63c-5.38-1.19-10.1,1.41-11.28,6.97l-7.4,34.94-2.93,13.6c-1.45,6.75-3.12,13.15-4.13,20.04-.59,4.06,2.64,8.35,6.68,9.28l56,12.79ZM13.37,74.44l5.12-22.93,3.03-14.31-5.68.8c-3.73.53-6.93,4.27-6.6,8.24.47,5.49,1.37,10.68,2.23,16.1l1.9,12.11ZM58.07,111.75l-32.83-7.57c-3.27-.98-5.87-2.58-8.34-4.95l1.6,10.89c.77,5.24,5.96,7.57,10.86,6.7l28.71-5.08Z"/>
      <path class="cls-2" d="M83.14,107.24l-56-12.79c-4.03-.92-7.27-5.21-6.68-9.28,1.01-6.88,2.68-13.29,4.13-20.04l2.93-13.6,7.4-34.94c1.18-5.57,5.9-8.16,11.28-6.97l79.87,17.62c4.39,1.56,7.12,5.71,6.9,10.36l-14.01,67.51c-.64,4.86-4.77,8.29-9.69,7.99l-26.14-5.87ZM113.94,53.67l-5.8,3.34-16.29-24.52c-1.45-2.19-4.34-1.98-6.29-.79l-17.32,10.58-8.04-9.06c.17-2.45-2.12-4.9-4.53-4.35l-6-6.19c-.97-1-2.46-1.26-3.85-.8-.87.28-2.04,1.22-2.32,2.47l-3.16,14.11-9.62,42.95c-.62,2.77,1.9,4.73,4.27,5.27l49.11,11.22,21.41,4.78c2.2.49,4.54-1.46,5.02-3.52l4.15-17.96,5.38-24.48c.34-1.55-.9-3.1-1.9-3.63-1.5-.8-2.83-.21-4.21.58Z"/>
      <path class="cls-2" d="M58.07,111.75l-28.71,5.08c-4.9.87-10.09-1.46-10.86-6.7l-1.6-10.89c2.47,2.37,5.07,3.96,8.34,4.95l32.83,7.57Z"/>
      <path class="cls-2" d="M13.37,74.44l-1.9-12.11c-.85-5.42-1.76-10.61-2.23-16.1-.34-3.97,2.86-7.71,6.6-8.24l5.68-.8-3.03,14.31-5.12,22.93Z"/>
      <g>
        <path class="cls-1" d="M113.94,53.67c1.38-.79,2.71-1.38,4.21-.58.99.53,2.24,2.08,1.9,3.63l-5.38,24.48-4.15,17.96c-.47,2.05-2.82,4.01-5.02,3.52l-21.41-4.78-49.11-11.22c-2.37-.54-4.89-2.5-4.27-5.27l9.62-42.95,3.16-14.11c.28-1.25,1.45-2.18,2.32-2.47,1.4-.46,2.88-.2,3.85.8l6,6.19c2.41-.55,4.7,1.91,4.53,4.35l8.04,9.06,17.32-10.58c1.95-1.19,4.84-1.39,6.29.79l16.29,24.52,5.8-3.34ZM101.59,60.82c.24-.14.51-.85.34-1.1l-13.62-20.8c-.24-.36-.89-.67-1.27-.44l-17.71,10.93c-1.43.89-3.55.41-4.61-.79l-9.58-10.79-6.24-6.3-7.84,34.45c3.95-1.8,7.24-4.01,10.89-6,1.63-.89,3.92-.93,5.22.54l5.02,5.67,17.89-10.1c2.42-1.37,4.77-.92,6.53,1.23l6.75,8.28,8.22-4.8ZM104.53,95.31l5.76-25.05,1.53-7.57-17.34,9.95c-1.52.68-3.51.53-4.64-.85l-7.62-9.24-18.61,10.51c-1.42.8-3.44.75-4.6-.52l-5.39-5.89-14.5,8.4-1.1,5.1,43.69,10.02,22.84,5.15Z"/>
        <path class="cls-2" d="M104.53,95.31l-22.84-5.15-43.69-10.02,1.1-5.1,14.5-8.4,5.39,5.89c1.16,1.27,3.17,1.32,4.6.52l18.61-10.51,7.62,9.24c1.14,1.38,3.12,1.52,4.64.85l17.34-9.95-1.53,7.57-5.76,25.05Z"/>
        <path class="cls-2" d="M101.59,60.82l-8.22,4.8-6.75-8.28c-1.76-2.15-4.11-2.6-6.53-1.23l-17.89,10.1-5.02-5.67c-1.31-1.48-3.59-1.43-5.22-.54-3.65,1.99-6.94,4.2-10.89,6l7.84-34.45,6.24,6.3,9.58,10.79c1.06,1.19,3.17,1.67,4.61.79l17.71-10.93c.38-.23,1.03.07,1.27.44l13.62,20.8c.17.26-.11.97-.34,1.1Z"/>
      </g>
    </g>
  </g>
</svg>