<?xml version="1.0" encoding="UTF-8"?>
<svg id="Layer_2" data-name="Layer 2" xmlns="http://www.w3.org/2000/svg" viewBox="0 0 127.52 116.79">
  <defs>
    <style>
      .cls-1 {
        fill: #312947;
      }

      .cls-2 {
        fill: #fff;
      }
    </style>
  </defs>
  <g id="Layer_2-2" data-name="Layer 2">
    <g>
      <path class="cls-1" d="M57.87,110.79l-37.41-33.75c-2.83-2.55-5.38-5.09-7.89-7.91C2.32,57.58-2.5,42.5,1.29,27.34c1.64-6.57,5.02-12.39,9.94-17C19.61,2.88,30.89-.19,41.96,1.92c7.43,1.42,13.88,5.19,19.25,10.72C68.63,4.04,79.4-.49,90.52.04c12.55.61,26,13.02,31.78,23.88,8.66,16.26,6.23,33.31-5.09,47.54-3.07,3.86-6.23,7.39-9.75,10.87l-14.04,13.86-20.75,19.77c-3,2.86-11.62-2.3-14.8-5.16ZM24.34,64.45l37.31,34.16c.89.81,1.81.75,2.64-.07l34.41-34.17c3.81-3.79,7.05-7.78,9.7-12.43,4.84-8.47,6.52-18.55,2.62-27.59s-12.08-14.46-21.71-14.78c-7.02-.23-13.62,2.47-18.84,7.12-2.64,2.35-4.66,5.03-6.63,7.95-.64.94-1.7,1.42-2.76,1.39s-1.9-.7-2.57-1.64c-2.58-3.67-5.49-6.93-9.29-9.41-11.62-7.57-28.21-4.29-35.52,7.09-3.86,6-5.07,13.07-3.56,20.04,1.87,8.62,7.69,16.4,14.18,22.34Z"/>
      <path class="cls-2" d="M24.34,64.45c-6.48-5.94-12.31-13.72-14.18-22.34-1.51-6.98-.3-14.04,3.56-20.04,7.31-11.38,23.9-14.66,35.52-7.09,3.8,2.48,6.71,5.73,9.29,9.41.67.95,1.52,1.61,2.57,1.64s2.12-.45,2.76-1.39c1.96-2.91,3.99-5.6,6.63-7.95,5.22-4.64,11.82-7.35,18.84-7.12,9.63.32,17.91,5.97,21.71,14.78s2.22,19.12-2.62,27.59c-2.66,4.65-5.89,8.64-9.7,12.43l-34.41,34.17c-.83.83-1.76.89-2.64.07l-37.31-34.16Z"/>
    </g>
  </g>
</svg>