<?xml version="1.0" encoding="UTF-8"?>
<svg id="Layer_2" data-name="Layer 2" xmlns="http://www.w3.org/2000/svg" viewBox="0 0 134.72 106.48">
  <defs>
    <style>
      .cls-1 {
        fill: #312947;
      }

      .cls-2 {
        fill: #fff;
      }
    </style>
  </defs>
  <g id="Layer_2-2" data-name="Layer 2">
    <path class="cls-2" d="M73.44,80.04l-48.04,12.42c-1.66.43-3.75-.02-4.26-1.83l-3.78-13.63c-.19-.68.25-1.2.77-1.52,4.95-3.06,7.83-8.52,7.35-14.29-.64-7.83-6.74-13.68-14.55-14.06-.43-.02-1.01-.4-1.14-.87l-3.38-12.64c-.54-2.03,1.37-3.14,3.03-3.55l40.59-9.94,23.35-5.79,1.05,3.97c.33,1.24,1.33,2.08,2.65,1.82,1.01-.2,2.1-1.27,1.78-2.52l-1.11-4.48,5.19-1.8,20.45-5.46c1.96-.52,3.37.97,3.82,2.68l2.85,10.81c.13.49.3,1.28,0,1.65-5.85,2.81-9.62,7.73-9.38,14.32.15,4.11,1.88,7.75,5.04,10.42s6.91,4.13,10.91,4.31c1.09.05,1.42.27,1.7,1.3l3.61,13.05c.41,1.48-.31,3.29-1.94,3.71l-25.66,6.5-1.41-4.82c-.32-1.1-1.74-1.54-2.68-1.23-1.07.35-1.79,1.44-1.49,2.65l1.14,4.6-16.49,4.24ZM82.77,32.1l-1.73-6.31c-.35-1.28-1.81-1.71-2.8-1.37-1.32.45-1.7,1.67-1.34,2.95l1.75,6.19c.32,1.13,1.82,1.47,2.71,1.13.96-.36,1.74-1.35,1.41-2.59ZM42.23,75.68l29.68-7.65c1.74-.45,3.08-1.17,3.9-2.51.97-1.58.9-3.11.44-4.8l-3.85-14.2-3.45-12.82c-.7-2.62-2.94-5.36-6.01-4.59l-31.57,8.01c-2.61.66-4.3,3.55-3.64,6.1l3.88,14.95,4.02,14.39c.79,2.83,3.9,3.8,6.6,3.1ZM86.81,46.88l-1.57-5.84c-.35-1.3-1.2-2.15-2.58-2-1.05.12-2.24,1.22-1.9,2.48l1.8,6.56c.32,1.15,1.71,1.74,2.71,1.41s1.88-1.36,1.55-2.61ZM90.7,61.05l-1.63-5.81c-.32-1.15-1.51-1.68-2.5-1.47-1.04.21-2.1,1.23-1.78,2.4l1.87,6.85c.33,1.22,2,1.47,2.84,1.07,1.26-.61,1.58-1.68,1.2-3.03Z"/>
    <path class="cls-1" d="M86.81,46.88c.33,1.24-.51,2.27-1.55,2.61s-2.4-.25-2.71-1.41l-1.8-6.56c-.34-1.26.85-2.36,1.9-2.48,1.38-.16,2.23.7,2.58,2l1.57,5.84Z"/>
    <path class="cls-1" d="M33.4,106.32c-5.16,1.3-17.4-5.49-18.66-10.4l-3.69-14.4c-.46-1.79,0-3.53.22-5.32.24-2.06.92-4.07,2.88-5.1,2.32-1.21,4.28-3.05,5.05-5.65-.01-1.75-.75-3.4-1.88-4.7-2.03-2.4-4.8-3.15-7.89-3.35-2.42-.15-4.91-2.18-5.56-4.62L.25,39.14c-.54-2.04-.05-3.9.17-5.98.42-3.97,2.87-7.68,6.98-8.72l59.44-15.08L102.07.21c4.83-1.25,12.94,3.38,14.15,8.04l3.23,12.41c.36,1.38.55,2.7.15,4.12.71,3.68-1.37,7.08-4.7,8.51-2.42,1.04-7.64,1.71-8.11,4.25.76,2.48,2.64,4.24,4.89,5.41,2.09,1.08,4.24,1.31,6.51,1.29,2.85-.01,6.54.25,7.25,2.79l9.2,20.52c.15,2.69.08,5.3-.34,7.88-1.13,4.05-4.07,6.94-8.25,7.51l-52.07,13.15-40.59,10.24ZM73.44,80.04l16.49-4.24-1.14-4.6c-.3-1.21.43-2.29,1.49-2.65.94-.31,2.35.13,2.68,1.23l1.41,4.82,25.66-6.5c1.63-.41,2.35-2.23,1.94-3.71l-3.61-13.05c-.28-1.03-.61-1.25-1.7-1.3-4.01-.17-7.87-1.74-10.91-4.31s-4.89-6.31-5.04-10.42c-.25-6.59,3.53-11.5,9.38-14.32.3-.37.13-1.16,0-1.65l-2.85-10.81c-.45-1.71-1.86-3.2-3.82-2.68l-20.45,5.46-5.19,1.8,1.11,4.48c.31,1.25-.78,2.32-1.78,2.52-1.32.26-2.32-.58-2.65-1.82l-1.05-3.97-23.35,5.79L9.44,30.07c-1.66.41-3.57,1.52-3.03,3.55l3.38,12.64c.12.46.7.85,1.14.87,7.82.38,13.91,6.24,14.55,14.06.47,5.77-2.41,11.23-7.35,14.29-.51.32-.95.84-.77,1.52l3.78,13.63c.5,1.81,2.6,2.26,4.26,1.83l48.04-12.42Z"/>
    <path class="cls-1" d="M90.7,61.05c.38,1.35.05,2.42-1.2,3.03-.84.41-2.5.16-2.84-1.07l-1.87-6.85c-.32-1.17.74-2.18,1.78-2.4s2.18.32,2.5,1.47l1.63,5.81Z"/>
    <path class="cls-1" d="M82.77,32.1c.34,1.24-.45,2.22-1.41,2.59-.9.34-2.39,0-2.71-1.13l-1.75-6.19c-.36-1.28.02-2.49,1.34-2.95.99-.34,2.45.1,2.8,1.37l1.73,6.31Z"/>
    <path class="cls-1" d="M42.23,75.68c-2.7.69-5.81-.27-6.6-3.1l-4.02-14.39-3.88-14.95c-.66-2.55,1.03-5.44,3.64-6.1l31.57-8.01c3.06-.78,5.3,1.97,6.01,4.59l3.45,12.82,3.85,14.2c.46,1.69.53,3.22-.44,4.8-.82,1.34-2.15,2.06-3.9,2.51l-29.68,7.65ZM41.21,71.07l29.71-7.61c.83-.21,1.13-.8.9-1.65l-7.36-26.91c-.15-.54-.42-1.29-1.14-1.11l-29.95,7.66c-.78.2-1.1.75-.89,1.55l7.4,27.45c.14.53.68.79,1.33.63Z"/>
    <path class="cls-2" d="M41.21,71.07c-.65.17-1.19-.1-1.33-.63l-7.4-27.45c-.21-.79.1-1.34.89-1.55l29.95-7.66c.72-.18.99.57,1.14,1.11l7.36,26.91c.23.85-.07,1.44-.9,1.65l-29.71,7.61Z"/>
  </g>
</svg>