<?xml version="1.0" encoding="UTF-8"?>
<svg id="Layer_2" data-name="Layer 2" xmlns="http://www.w3.org/2000/svg" viewBox="0 0 151.98 138.65">
  <defs>
    <style>
      .cls-1 {
        fill: #312947;
      }

      .cls-2 {
        fill: #fff;
      }
    </style>
  </defs>
  <g id="Layer_2-2" data-name="Layer 2">
    <path class="cls-2" d="M11.74,47.95c-.82-2.02-1.41-3.77-1.74-5.63-.88-4.98,2.43-9.4,7.32-10.75L98.44,9.06c4.69-1.3,9.19,1.52,10.64,5.76l1.84,5.36L11.74,47.95Z"/>
    <path class="cls-1" d="M46.47,138.23c-7.75-1.25-23.99-11.58-25.97-18.86l-8.72-32.05L.7,47.04c-2.62-9.54,2.32-18.75,11.04-22.63,3.69-1.64,7.06-2.65,11.04-3.74L96.76.4c9.42-2.58,29.13,7.7,32.12,17.52l12.21,40.11,9.89,30.93c3.61,11.28-2.83,23.5-14.59,26.79l-79.21,22.15c-3.48.97-7.1.91-10.71.33ZM11.74,47.95l99.18-27.78-1.84-5.36c-1.45-4.24-5.95-7.06-10.64-5.76L17.32,31.57c-4.89,1.36-8.2,5.77-7.32,10.75.33,1.86.92,3.61,1.74,5.63ZM125.14,97.78c5.15-1.55,7.92-6.37,6.37-11.42l-18.03-58.64L13.48,55.57l16.31,57.97c1.62,5.76,6.3,9.04,12.25,7.61l83.1-23.37Z"/>
    <path class="cls-2" d="M125.14,97.78l-83.1,23.37c-5.95,1.43-10.63-1.85-12.25-7.61L13.48,55.57l100-27.85,18.03,58.64c1.55,5.05-1.22,9.87-6.37,11.42ZM74.5,103.75l42.2-11.62c2.73-.75,3.31-4.01,2.61-6.34l-13.09-43.6c-.8-2.67-3.57-3.94-6.26-3.17l-67.82,19.43c-2.6.75-3.59,3.32-2.91,5.65l12.65,43.18c.81,2.78,3.38,4.31,6.19,3.56l26.43-7.08Z"/>
    <path class="cls-1" d="M74.5,103.75l-26.43,7.08c-2.81.75-5.38-.78-6.19-3.56l-12.65-43.18c-.68-2.33.31-4.9,2.91-5.65l67.82-19.43c2.68-.77,5.46.51,6.26,3.17l13.09,43.6c.7,2.34.12,5.59-2.61,6.34l-42.2,11.62ZM100.84,45.34l-17.47,5,5.07,17.7,17.47-5-5.07-17.7ZM77.47,52.02l-19.34,5.54,5.04,17.6,19.34-5.54-5.04-17.6ZM38.15,77.38c-.71,1.48.11,3.38,1.22,3.98.94.51,3.2.37,3.82-.59l3.78-5.93,5.91,2.9c1.95.96,4.17-.36,4.58-2.26s-1.16-3.4-3.06-4.19l-1.82-7.11c.33-.77.96-2.18.93-2.94-.04-1.33-1.09-2.55-2.04-2.9-.83-.31-2.89.16-3.38.99l-4.01,6.83c.34-1.58,1.05-2.78,1.78-4.25l-6.28,1.69c-2.21-.78-3.9-.5-4.89,1.4-.79,1.53-.08,3.58,1.6,4.47l4.53,2.39-2.67,5.53ZM107.84,69.07l-17.53,4.96,5,17.65,17.53-4.96-5-17.65ZM84.44,75.73l-19.46,5.39,4.84,17.47,19.46-5.39-4.84-17.47ZM45.48,101.15c-.68,1.48.1,3.2,1.27,3.84,1.09.6,3.17.46,3.95-.8l3.44-5.57,5.83,3.18c1.32.72,3.26-.42,3.91-1.53.55-.93.48-3.3-.66-3.99l-5.83-3.52,3.48-6.99c.52-1.05-1-2.95-1.88-3.34-.8-.35-2.82.08-3.32.88l-3.73,6.09-5.81-2.75c-1.17-.55-2.75-.64-3.65.2s-1.26,2.39-.67,3.77c.35.82,2.14,1.84,2.8,2.48.92,1.67,1.47,4.05,1.9,5.85l-1.02,2.2Z"/>
    <rect class="cls-2" x="60.26" y="54.44" width="20.12" height="18.3" transform="translate(-14.8 21.84) rotate(-15.99)"/>
    <rect class="cls-2" x="67.04" y="78.1" width="20.19" height="18.13" transform="translate(-20.47 23.75) rotate(-15.48)"/>
    <rect class="cls-2" x="92.46" y="71.21" width="18.22" height="18.35" transform="translate(-18.06 30.71) rotate(-15.81)"/>
    <rect class="cls-2" x="85.56" y="47.49" width="18.17" height="18.41" transform="translate(-11.95 28.25) rotate(-15.98)"/>
    <path class="cls-2" d="M38.15,77.38l2.67-5.53-4.53-2.39c-1.68-.89-2.39-2.94-1.6-4.47.99-1.9,2.68-2.18,4.89-1.4l6.28-1.69c-.74,1.48-1.44,2.68-1.78,4.25l4.01-6.83c.49-.83,2.55-1.3,3.38-.99.96.36,2.01,1.57,2.04,2.9.02.76-.61,2.17-.93,2.94l1.82,7.11c1.89.79,3.48,2.23,3.06,4.19s-2.63,3.22-4.58,2.26l-5.91-2.9-3.78,5.93c-.61.96-2.88,1.1-3.82.59-1.11-.6-1.94-2.5-1.22-3.98Z"/>
    <path class="cls-2" d="M45.48,101.15l1.02-2.2c-.43-1.8-.99-4.17-1.9-5.85-.65-.64-2.45-1.66-2.8-2.48-.59-1.38-.2-2.97.67-3.77s2.48-.75,3.65-.2l5.81,2.75,3.73-6.09c.49-.8,2.52-1.24,3.32-.88.88.39,2.4,2.29,1.88,3.34l-3.48,6.99,5.83,3.52c1.14.69,1.21,3.07.66,3.99-.65,1.11-2.59,2.25-3.91,1.53l-5.83-3.18-3.44,5.57c-.78,1.26-2.86,1.4-3.95.8-1.17-.64-1.95-2.37-1.27-3.84Z"/>
  </g>
</svg>