<?xml version="1.0" encoding="UTF-8"?>
<svg id="Layer_2" data-name="Layer 2" xmlns="http://www.w3.org/2000/svg" viewBox="0 0 97.87 123.1">
  <defs>
    <style>
      .cls-1 {
        fill: #312947;
      }

      .cls-2 {
        fill: #fff;
      }
    </style>
  </defs>
  <g id="Layer_2-2" data-name="Layer 2">
    <path class="cls-1" d="M57.64,122.37c-3.63,2.96-15.03-3.88-18.35-6.75-12.67-10.99-25.27-28.61-32.52-43.73C3.21,64.45.86,56.97.17,48.88-1.63,27.63,11.04,8.55,31.13,1.86c25.34-8.44,59.39,13.12,65.56,39.28,3.62,15.36-1.59,31.03-9.43,44.57-7.15,12.35-18.54,27.61-29.63,36.66ZM44.04,106.9c.9.86,2.29.72,3.23-.21,13.96-13.87,29.87-35.76,33.23-54.99,3.84-22-12.58-41.59-34.8-41.72-20.58-.12-36.86,16.9-35.53,37.63.95,14.8,10.86,31.19,19.71,43.26,4.3,5.87,8.92,11.01,14.17,16.03Z"/>
    <path class="cls-2" d="M44.04,106.9c-5.25-5.02-9.87-10.17-14.17-16.03-8.85-12.07-18.76-28.46-19.71-43.26-1.33-20.73,14.95-37.76,35.53-37.63,22.22.13,38.64,19.73,34.8,41.72-3.35,19.23-19.27,41.12-33.23,54.99-.94.93-2.32,1.08-3.23.21ZM65.38,46.3c0-10.96-8.88-19.84-19.84-19.84s-19.84,8.88-19.84,19.84,8.88,19.84,19.84,19.84,19.84-8.88,19.84-19.84Z"/>
    <path class="cls-1" d="M65.38,46.3c0,10.96-8.88,19.84-19.84,19.84s-19.84-8.88-19.84-19.84,8.88-19.84,19.84-19.84,19.84,8.88,19.84,19.84ZM56.83,46.38c0-6.25-5.07-11.32-11.32-11.32s-11.32,5.07-11.32,11.32,5.07,11.32,11.32,11.32,11.32-5.07,11.32-11.32Z"/>
    <circle class="cls-2" cx="45.51" cy="46.38" r="11.32"/>
  </g>
</svg>