<?xml version="1.0" encoding="UTF-8"?>
<svg id="Layer_2" data-name="Layer 2" xmlns="http://www.w3.org/2000/svg" viewBox="0 0 120.14 111.89">
  <defs>
    <style>
      .cls-1 {
        fill: #312947;
      }

      .cls-2 {
        fill: #fff;
      }
    </style>
  </defs>
  <g id="Layer_2-2" data-name="Layer 2">
    <path class="cls-2" d="M102.59,53.06l-6.57-1.01c-.08-7.33-2.27-14.2-6.11-20.31l5.92-4.11c4.52,7.74,6.83,16.14,6.75,25.43Z"/>
    <path class="cls-2" d="M18.3,57.06l-6.41,1.89c-.37-3.67-.4-7.13.02-10.74.7-5.28,1.95-10.22,4.17-15.18l6.33,3.26c-3.24,6.53-4.7,13.41-4.11,20.78Z"/>
    <path class="cls-1" d="M81.26,35.54c-9.15-11.28-25.43-13.48-38.3-6.87-4.63,2.38-8.68,5.72-11.48,10.11-.82,1.28-1.77,2.17-2.88,3.1-2.45,3.58-3.74,7.89-4.14,12.33,6.18-2.37,13.67.52,15.81,7.04l7.86,26.26c.66,2.26.93,4.36.68,6.65,1.08,7.12-3.5,13.49-10.56,14.73l-4.47.35-7.86,2.17c-8.38,2.03-17.41-2.67-19.7-11.11L.77,80.18c-1.92-7.07-.21-12.72,4.55-18.18-.24-6.96.14-13.86,1.66-20.71.94-4.25,2.39-8.14,4.21-12.07C18.02,14.41,31.32,5.07,47.04,1.4c18.98-4.43,38.04,1.76,49.96,17.22,8,10.22,11.66,22.91,11.34,35.81,4.25,2.8,11.79,11.71,11.79,16.74v6.17c-1.12,7.34-1.79,14.65-3.29,21.92-1.58,7.69-9.13,12.44-16.71,11.84l-13.07-5.2c-1.6-.18-3.25.3-4.88.13-6.65-.72-12.13-6.22-12.02-13.02.05-3.31.45-6.39.9-9.68l3.06-22.04c1.04-7.53,7.79-12.59,15.37-11.14-.68-4.4-2.43-8.45-5.03-11.99-1.45-.51-2.29-1.49-3.21-2.62ZM84.39,27.27c.43.46.84.91,1.25,1.01.53.13,1.31-.1,1.73-.4l5.06-3.51c.39-.27.72-.82.36-1.31-5.8-7.95-14.12-13.57-23.72-15.81-7.01-1.63-14.02-1.62-21.01.09-12,2.95-23.12,9.61-29.4,20.44-.33.57-.11,1.26.42,1.53l5.33,2.79c1.04.54,1.95.07,2.59-.78,3.88-5.19,9-9.11,14.89-11.84,14.83-6.88,31.2-4.19,42.5,7.78ZM102.59,53.06c.07-9.29-2.23-17.69-6.75-25.43l-5.92,4.11c3.84,6.11,6.03,12.99,6.11,20.31l6.57,1.01ZM18.3,57.06c-.59-7.37.87-14.25,4.11-20.78l-6.33-3.26c-2.22,4.96-3.48,9.9-4.17,15.18-.42,3.61-.38,7.08-.02,10.74l6.41-1.89ZM85.47,96.13l5.59-39.59c-.3-.48-1.18-.54-1.6-.65-2.41-.63-4.72-.34-6.71,1.08-1.85,1.33-2.66,3.26-2.98,5.66l-3.62,26.58c-.33,2.4,1.09,4.68,2.66,5.89,1.96,1.51,4.38,1.86,6.65,1.02ZM106.16,89.52l3.02-21.91c.62-4.5-2.55-8.55-6.88-9.61l-6.64-1.1-2.55,18.14-2.97,20.81c-.03.21-.04.59.08.69s.45.21.62.24l5.01.76c4.82.36,9.62-3.07,10.3-8.01ZM34.97,99.02c2.55.43,4.91-.42,6.45-2.18,1.43-1.62,2.38-4.04,1.72-6.31l-7.61-26.2c-1.15-3.97-5.04-6.41-9.03-4.9l-1.87.71c-.53.2-.74.88-.57,1.48l10.91,37.4ZM24.83,101.91l5.69-1.76-11.17-38.21-6.07,1.67c-5.51,1.9-7.35,7.61-5.74,12.92l5.78,19.1c1.44,4.74,6.68,7.52,11.52,6.29Z"/>
    <path class="cls-2" d="M84.39,27.27c-11.3-11.97-27.67-14.65-42.5-7.78-5.89,2.73-11.01,6.65-14.89,11.84-.64.85-1.55,1.32-2.59.78l-5.33-2.79c-.53-.28-.75-.96-.42-1.53,6.28-10.84,17.4-17.49,29.4-20.44,6.98-1.72,14-1.73,21.01-.09,9.61,2.24,17.93,7.85,23.72,15.81.36.5.03,1.04-.36,1.31l-5.06,3.51c-.43.3-1.2.53-1.73.4-.42-.11-.82-.56-1.25-1.01Z"/>
    <path class="cls-2" d="M34.97,99.02l-10.91-37.4c-.18-.6.04-1.28.57-1.48l1.87-.71c3.99-1.51,7.87.93,9.03,4.9l7.61,26.2c.66,2.27-.3,4.68-1.72,6.31-1.55,1.76-3.9,2.61-6.45,2.18Z"/>
    <path class="cls-2" d="M24.83,101.91c-4.84,1.23-10.09-1.55-11.52-6.29l-5.78-19.1c-1.6-5.3.24-11.02,5.74-12.92l6.07-1.67,11.17,38.21-5.69,1.76Z"/>
    <path class="cls-2" d="M106.16,89.52c-.68,4.94-5.49,8.37-10.3,8.01l-5.01-.76c-.17-.03-.51-.14-.62-.24s-.11-.47-.08-.69l2.97-20.81,2.55-18.14,6.64,1.1c4.33,1.06,7.5,5.11,6.88,9.61l-3.02,21.91Z"/>
    <path class="cls-2" d="M85.47,96.13c-2.27.84-4.69.48-6.65-1.02-1.57-1.21-2.99-3.48-2.66-5.89l3.62-26.58c.33-2.4,1.14-4.34,2.98-5.66,1.98-1.43,4.3-1.71,6.71-1.08.42.11,1.3.17,1.6.65l-5.59,39.59Z"/>
  </g>
</svg>