<?xml version="1.0" encoding="UTF-8"?>
<svg id="Layer_2" data-name="Layer 2" xmlns="http://www.w3.org/2000/svg" viewBox="0 0 143.55 122.26">
  <defs>
    <style>
      .cls-1 {
        fill: #312947;
      }

      .cls-2 {
        fill: #fff;
      }
    </style>
  </defs>
  <g id="Layer_2-2" data-name="Layer 2">
    <path class="cls-1" d="M113.47,116.92c-11.52,7.06-25.44,6.79-38.23,1.17-7.09-3.11-13.59-6.81-20.17-10.83l-5.75-4.56c-5.94-.36-11.6-1.88-17.01-4.69l-24.78-12.87c-3.54-1.84-6.24-4.99-7.19-8.76-1.59-6.3,2.53-12.18,8.97-12.73,2.6-.22,5.21.19,7.91.66l-10.17-21.77c-1.45-3.1-2.59-6.22-2.67-9.65-.19-7.61,5.61-13.41,13.43-13.24-.43-5.29,2.37-9.41,5.91-12.09,4.37-3.32,9.66-2.77,14.3-1.51,3.4-3.43,7.92-6.66,13.44-5.93,4.74.63,9.2,3.48,11.4,8.47l10.75,24.46,5.5-9.61c5.02-6.5,14.22-7.72,20.28-1.98,4.14-3.38,9.34-4.3,14.31-2.11,4.38,1.93,7.69,6.26,7.74,11.72,7.09.04,15.59,7.24,16.67,14.12.64,4.09-.08,8.19-1.77,12.08l-9.41,21.7c7.11-1.29,14.12,2.6,16.1,9.46,1.6,5.53-.61,10.75-5.38,13.68l-24.18,14.82ZM30.25,74.94c.96,2.11-.44,4.04-2.06,4.62-1.33.48-3.39-.09-4.17-1.6l-2.71-5.29-9.92-1.66c-1.35-.23-3.17,1.02-3.43,2.11s.22,3.02,1.25,3.64l7.23,4.36,22.48,11.57c7.29,3.3,14.87,2.96,21.78-.78,5.35-2.9,10.27-6.06,15.08-9.77,5.7-4.39,3.83-11.84.92-18.78L54.89,11.26c-1.24-2.95-4.89-3.81-7.38-2.92-2.34.84-4.55,3.69-3.4,6.53l11.73,29.03c.76,1.88-.66,3.78-2.23,4.25-1.22.37-3.26-.1-3.93-1.7l-12.86-30.52c-1.03-2.46-3.62-3.78-6.16-3.31-1.98.36-3.76,1.78-4.56,3.29-.89,1.7-1.06,4.16-.18,6.02l13.45,28.66c.94,1.99-.83,4.23-2.36,4.55-2.02.42-3.21-.66-4.11-2.52l-11.77-24.16c-1.1-2.26-4.73-1.81-6.31-.94-4.78,2.63-2.55,8.08-.19,13.25l15.64,34.18ZM93.22,83.99c-.23-1.14.61-3.09,2.13-3.57,4.36-1.4,8.74-.29,13,2.12l16.89-35.71c1.19-2.51,1.21-5.02-.76-7-1.46-1.47-4.44-2.38-6.55-.7-1.5,1.19-2.56,3.16-3.46,4.92l-9.88,19.37c-.72,1.42-3.1,1.56-4.24.93-.97-.54-1.96-2.51-1.29-3.85l13.68-27.52c.8-1.61.39-3.84-.52-5.2-.84-1.25-2.68-2.26-4.49-2.25-2.42.02-4.58,1.42-5.58,3.56l-12.01,25.61c-.72,1.54-3.54,1.42-4.57.59s-1.44-2.63-.77-4.1l9.39-20.37c.91-1.97.8-3.75-1.39-5.01-2.64-1.52-6.69-.45-8.22,2.57l-7.69,15.2,7.31,18.08c1.31,3.23,2.22,6.51,2.89,9.88.87,6.74-1.73,12.95-7.13,16.99s-10.29,7.15-16.2,10.28l15.46,9.12c7.1,3.67,15.17,3.06,22.1-.64l28.52-15.87c1.35-.75,1.61-3.14,1.14-4.24-1.75-4.1-7.42-3.75-11.79-1.62l-8.34,4.07c-2.09,1.02-4.26.89-6.07-.64-5.46-4.61-10.63-.29-11.56-5Z"/>
    <path class="cls-2" d="M30.25,74.94l-15.64-34.18c-2.36-5.16-4.59-10.62.19-13.25,1.58-.87,5.21-1.32,6.31.94l11.77,24.16c.91,1.86,2.09,2.94,4.11,2.52,1.53-.32,3.3-2.55,2.36-4.55l-13.45-28.66c-.87-1.86-.71-4.32.18-6.02.79-1.52,2.57-2.93,4.56-3.29,2.55-.47,5.13.86,6.16,3.31l12.86,30.52c.67,1.6,2.72,2.07,3.93,1.7,1.57-.48,2.99-2.37,2.23-4.25l-11.73-29.03c-1.15-2.84,1.06-5.69,3.4-6.53,2.49-.9,6.14-.03,7.38,2.92l21.81,52.09c2.91,6.95,4.78,14.4-.92,18.78-4.82,3.71-9.74,6.88-15.08,9.77-6.9,3.74-14.48,4.08-21.78.78l-22.48-11.57-7.23-4.36c-1.03-.62-1.5-2.61-1.25-3.64.26-1.08,2.08-2.33,3.43-2.11l9.92,1.66,2.71,5.29c.77,1.51,2.83,2.07,4.17,1.6,1.62-.58,3.03-2.51,2.06-4.62Z"/>
    <path class="cls-2" d="M93.22,83.99c.93,4.71,6.1.39,11.56,5,1.8,1.52,3.97,1.66,6.07.64l8.34-4.07c4.37-2.13,10.04-2.48,11.79,1.62.47,1.1.22,3.49-1.14,4.24l-28.52,15.87c-6.93,3.71-15.01,4.31-22.1.64l-15.46-9.12c5.91-3.12,11.07-6.44,16.2-10.28,5.4-4.05,8-10.25,7.13-16.99-.67-3.37-1.59-6.65-2.89-9.88l-7.31-18.08,7.69-15.2c1.53-3.02,5.59-4.09,8.22-2.57,2.19,1.26,2.3,3.05,1.39,5.01l-9.39,20.37c-.67,1.46-.22,3.29.77,4.1s3.85.95,4.57-.59l12.01-25.61c1-2.14,3.16-3.54,5.58-3.56,1.8-.02,3.65,1,4.49,2.25.92,1.36,1.32,3.6.52,5.2l-13.68,27.52c-.67,1.34.32,3.31,1.29,3.85,1.14.63,3.51.49,4.24-.93l9.88-19.37c.9-1.76,1.96-3.73,3.46-4.92,2.11-1.68,5.09-.77,6.55.7,1.97,1.98,1.94,4.49.76,7l-16.89,35.71c-4.26-2.42-8.64-3.52-13-2.12-1.51.49-2.35,2.43-2.13,3.57Z"/>
  </g>
</svg>