<?xml version="1.0" encoding="UTF-8"?>
<svg id="Layer_2" data-name="Layer 2" xmlns="http://www.w3.org/2000/svg" viewBox="0 0 123.72 132.19">
  <defs>
    <style>
      .cls-1 {
        fill: #312947;
      }

      .cls-2 {
        fill: #fff;
      }
    </style>
  </defs>
  <g id="Layer_2-2" data-name="Layer 2">
    <path class="cls-1" d="M47.98,127.47l-41.63,4.55c-1.59.53-3.76-.26-4.78-1.18-1.08-.97-1.85-2.93-1.46-4.64l8.82-38.6c.87-3.8,2.78-6.6,5.31-9.51L77.06,5.71c6.76-7.79,19.14-7.22,26.43-.68l10.57,9.47c7.87,7.05,13.36,25.98,6.63,33.67l-63.45,72.62c-2.68,3.07-5.12,5.29-9.27,6.67ZM108.48,33.69c2.94-3.44,3.22-9.42-.18-12.46l-11.79-10.51c-3.7-2.43-9.32-2.84-12.41.62l-6.37,7.13,24.99,21.94,5.76-6.73ZM72.03,25.06l-5.22,5.93,24.92,21.92,5.22-5.93-24.92-21.92ZM44.62,106.83l42.54-48.78-24.85-21.76-41.72,48.32,24.03,22.22ZM22.16,117.56l17.39-6.03-22.48-20.89-4.1,17.97c4.88,1.4,7.42,4.78,9.19,8.94Z"/>
    <polygon class="cls-2" points="44.62 106.83 20.59 84.61 62.31 36.29 87.16 58.05 44.62 106.83"/>
    <path class="cls-2" d="M108.48,33.69l-5.76,6.73-24.99-21.94,6.37-7.13c3.09-3.46,8.71-3.05,12.41-.62l11.79,10.51c3.41,3.03,3.13,9.02.18,12.46Z"/>
    <path class="cls-2" d="M22.16,117.56c-1.78-4.16-4.31-7.54-9.19-8.94l4.1-17.97,22.48,20.89-17.39,6.03Z"/>
    <rect class="cls-2" x="77.93" y="22.39" width="7.9" height="33.19" transform="translate(-1.48 74.72) rotate(-48.66)"/>
  </g>
</svg>