<?xml version="1.0" encoding="UTF-8"?>
<svg id="Layer_2" data-name="Layer 2" xmlns="http://www.w3.org/2000/svg" viewBox="0 0 147.92 134.97">
  <defs>
    <style>
      .cls-1 {
        fill: #312947;
      }

      .cls-2 {
        fill: #fff;
      }
    </style>
  </defs>
  <g id="Layer_2-2" data-name="Layer 2">
    <path class="cls-2" d="M81.16,84.13c0,20.12-16.31,36.43-36.43,36.43S8.31,104.25,8.31,84.13s16.31-36.43,36.43-36.43,36.43,16.31,36.43,36.43ZM57.24,76.53c1.75-3.94,1.15-8.33-1.41-11.47-1-1.23-2.85-1.88-4.34-1.51-1.01.25-2.47,1.46-2.94,2.71-2.2,5.86,1.01,12.92,5.35,12.62,1.07-.07,2.75-1.05,3.33-2.34ZM33.08,68.73c-.94-1.17-2.78-1.75-4.04-1.43-4.41,1.12-5.21,8.9-1.78,13.85.91,1.31,2.59,2.07,4.08,1.91,4.3-.48,6.1-8.92,1.74-14.33ZM47.41,108.79c13.43-2.27,20.01-17.24,16.57-21.02-.6-.67-2.27-1.23-3.41-1.06l-30.41,4.57c-1.22.18-2.66,1.11-3.2,1.99-2.55,4.19,6.9,17.81,20.45,15.52Z"/>
    <path class="cls-1" d="M47.41,108.79c-13.55,2.29-23-11.33-20.45-15.52.54-.89,1.97-1.81,3.2-1.99l30.41-4.57c1.14-.17,2.8.4,3.41,1.06,3.44,3.79-3.14,18.75-16.57,21.02Z"/>
    <path class="cls-1" d="M33.08,68.73c4.36,5.41,2.56,13.85-1.74,14.33-1.49.17-3.17-.59-4.08-1.91-3.43-4.95-2.63-12.74,1.78-13.85,1.25-.32,3.09.26,4.04,1.43Z"/>
    <path class="cls-1" d="M57.24,76.53c-.58,1.3-2.25,2.27-3.33,2.34-4.34.3-7.55-6.75-5.35-12.62.47-1.25,1.93-2.47,2.94-2.71,1.48-.36,3.33.28,4.34,1.51,2.56,3.14,3.16,7.53,1.41,11.47Z"/>
    <path class="cls-1" d="M49.87,134.95c-17.94-.59-38.27-15.02-45.5-30.87-7.51-16.18-5.31-35.06,6.32-48.65,9.26-10.83,23.04-16.48,37.54-15.66C52.36,15.04,74.11-1.5,99.07.11c16.13,1.1,35.28,13.68,43.07,27.62,10.22,18.26,6.63,40.58-8.74,54.82-10,9.27-23.44,13.68-37.12,12.57-2.36,23.15-22.84,40.6-46.41,39.83ZM107.25,58.63c-5.02,6.74-12.86,9.6-21.24,8.76,1.92,4.92,3.06,9.62,3.52,15.06,14.46,2.27,29.26-3.5,37.67-15.55,10.57-14.58,9.14-34.02-3.22-46.98-10.3-10.8-25.52-14.71-39.98-10.57s-25.67,16.62-28.1,31.75c4.72,1.24,8.6,3.04,12.72,5.46l1.18-4.77c.47-1.9,3.14-3.02,5-2.28l32.01,12.72c2.31.92,1.85,4.7.44,6.42ZM81.16,84.13c0-20.12-16.31-36.43-36.43-36.43S8.31,64.02,8.31,84.13s16.31,36.43,36.43,36.43,36.43-16.31,36.43-36.43Z"/>
    <path class="cls-2" d="M107.25,58.63c1.41-1.72,1.87-5.5-.44-6.42l-32.01-12.72c-1.86-.74-4.53.38-5,2.28l-1.18,4.77c-4.12-2.42-8-4.21-12.72-5.46,2.43-15.13,13.28-27.5,28.1-31.75s29.67-.23,39.98,10.57c12.36,12.96,13.79,32.41,3.22,46.98-8.41,12.05-23.21,17.82-37.67,15.55-.46-5.44-1.6-10.13-3.52-15.06,8.39.84,16.22-2.02,21.24-8.76ZM85.99,35.55c3.45-2.23,4.85-6.16,4.33-9.99-.18-1.35-1.44-2.75-2.43-3.02-1.2-.32-2.86-.1-3.82.69-4.42,3.65-4.97,10.57-1.99,12.35.86.51,2.95.59,3.91-.03ZM108.16,43.98c5.21-3.8,5.21-11.79,1.43-13.03-1.23-.4-3.16-.15-4.13.75-4.86,4.47-4.55,11.7-1.34,12.82,1.13.39,2.96.26,4.04-.53Z"/>
    <path class="cls-1" d="M108.16,43.98c-1.08.79-2.91.93-4.04.53-3.21-1.12-3.52-8.34,1.34-12.82.97-.9,2.9-1.15,4.13-.75,3.79,1.24,3.78,9.23-1.43,13.03Z"/>
    <path class="cls-1" d="M85.99,35.55c-.96.62-3.04.54-3.91.03-2.98-1.78-2.43-8.69,1.99-12.35.96-.8,2.62-1.02,3.82-.69.99.27,2.25,1.67,2.43,3.02.52,3.83-.88,7.76-4.33,9.99Z"/>
  </g>
</svg>