<?xml version="1.0" encoding="UTF-8"?>
<svg id="Layer_2" data-name="Layer 2" xmlns="http://www.w3.org/2000/svg" viewBox="0 0 159.1 159.1">
  <defs>
    <style>
      .cls-1 {
        fill: #338093;
      }

      .cls-1, .cls-2 {
        stroke-width: 0px;
      }

      .cls-2 {
        fill: #fff;
      }
    </style>
  </defs>
  <g id="Layer_1-2" data-name="Layer 1">
    <g>
      <circle class="cls-1" cx="79.55" cy="79.55" r="79.55"/>
      <g>
        <path class="cls-2" d="M115.22,98.4c0,5.34-2.67,8.01-8.01,8.01-5.67,0-8.5-2.67-8.5-8.01s2.83-8.01,8.5-8.01c5.34,0,8.01,2.67,8.01,8.01ZM104.21,84.56c-1.3-8.67-2.39-15.5-3.26-20.5-.87-4.99-1.58-8.88-2.12-11.65-.54-2.77-.92-4.85-1.14-6.24-.22-1.39-.32-2.81-.32-4.27,0-5.06,3.31-7.59,9.94-7.59s9.94,2.53,9.94,7.59c0,1.46-.11,2.88-.32,4.27-.22,1.39-.63,3.47-1.22,6.24-.6,2.77-1.44,6.66-2.52,11.65-1.09,4.99-2.44,11.83-4.07,20.5h-4.89Z"/>
        <path class="cls-2" d="M56.14,87.48c2.91,8.63,14.46,18.93,31.83,3.43,1.04-.94,2.6.31,1.98,1.46-3.33,6.35-10.92,15.81-26.42,15.81s-29.23-11.96-29.23-26.74,13-26.84,29.13-26.74h.31c13-.1,24.03,7.91,27.67,18.83.42,1.35-.31,2.81-1.66,3.23l-33.6,10.71ZM70.7,78.22c.83-.31,1.35-1.25,1.14-2.08-1.77-8.32-5.83-17.37-11.86-16.33-.1,0-.31.1-.42.1-7.39,1.87-6.76,16.33-4.89,23.3l16.02-4.99Z"/>
      </g>
    </g>
  </g>
</svg>