<?xml version="1.0" standalone="no"?>
<!DOCTYPE svg PUBLIC "-//W3C//DTD SVG 1.1//EN" "http://www.w3.org/Graphics/SVG/1.1/DTD/svg11.dtd">
<svg xmlns="http://www.w3.org/2000/svg" id="Layer_2" data-name="Layer 2" viewBox="0 0 738.85 229.77" width="738.8499755859375" height="229.77000427246094">
  <defs>
    <style>
      .cls-1 {
        fill: #f6f5f3;
      }
    </style>
  </defs>
  <g id="Layer_1" data-name="Layer 1">
    <g>
      <g>
        <path class="cls-1" d="M433.24,191.1c5.49,1.24-16.99,11.04-16.91,11-4.67,2.1-9.76,4.96-14.45,1.56-5.24-3.8-4.26-10.04-2.87-15.54,4.03-15.97,9.5-30.62,15.24-45.95l9.19-24.53c1.02-.1,2.2-.18,2.73-.46.66-.34,1.17-2.57.98-2.58l-3.43,1.59,3.73-10.69c1.75-5.02,3.11-10.13,5.99-14.67-.02-4.4,7.14-24.27,10.31-27.84l4.56-2.41-3.81.21c2.25-6.67,4.41-13.18,7.64-19.52.94-1.84,1.09-2.62,1.58-4.8l2.43-11.07c1.93-8.79,2.15-16.11-3.43-24.96,10.94-3,26.01,9.62,25.27,23.49l24.31-10.28c1.92-.81,6.08-1.73,8.04-1.98,4.36-.56,5.04,5,6.52,7.29,2.74,4.26,6.1,7.84,6.84,13.07.98,6.89-.55,14.31-2.91,21.29l-18.07,53.34c-1.91,5.63-5.17,11.6-8.34,16.4l-6.49,9.83c-13.18,10.66-32.74,13.76-49.43,7.75-6.29,13.23-11.4,26.01-15.8,39.55l.75,5.97c.76,6.03,7.08,4.31,9.84,4.94ZM468.7,125.2c8.51-13.51,13.75-28.33,19.54-43.21.89-2.3,1.54-4.25,2.2-6.37,4.83-15.37,9.92-27.62,8.3-43.61-8.43-6.9-14.54-.02-22.63,1.94-.97,5.05-1.97,10.22-3.71,15.2l-5.4,15.38-19.62,52.16-5.92,17.01c10.03,3.69,21.3.9,27.23-8.51Z"/>
        <path class="cls-1" d="M9.52,229.58c-1.8.67-5.91-.59-7.22-1.72-3.76-3.27-2.03-14.52-.91-19.5.87-3.84,1.3-8,2.69-11.52l7.31-18.66,5.89-15.06,5.57-3.04-3.21-1.82c-.52-.29.11-1.93.37-2.7l6.29-18.62c.73-2.15,2.24-4.71,3.11-7.04l3.87-10.42c1.79-4.82,4-8.68,5.04-13.95l2.06-5.43c.8-3.37,1.46-6.1,2.77-8.96l5.06-11.07c2.32-5.07,4-10.78,6.14-16.31,1.57-4.06,1.88-8.25,2.41-12.47,1-7.89,2.33-14.82-2.3-22.85,1.1-.63,4.18-.99,5.54-.32,1.29.63,2.89,3.08,3.77,4.44,8.49-6.43,12.9,11.65,14.89,18.12,10.88-5.1,21.44-9.8,32.98-12.02,3.89,1.44,4.4,7.39,6.33,9.69,5.75,6.83,6.79,13.17,4.65,21.46-1.17,4.53-2.31,9.44-3.95,14.04l-3.49,9.84-7.95,20.94-6.36,16.47c-2.39,6.2-5.94,12.02-9.35,18.34-9.21,17.05-34.43,23.15-53.53,17.77l-5.45,13.24c-3.58,8.7-6.99,16.94-8.79,26.29-.32,1.64,1.13,4.82,2.02,6.07,2.38,3.35,4.51.34,9.43,2,5.88,1.98-23.88,14.13-25.66,14.79ZM70.45,145.61c1.08.67,1.93,1.41,2.11,1.08.32-.6.76-1.28.49-1.59-.18-.21-.9-.84-1.48-1.37l5.55-12.88,10.63-26.03c1.73-.46,3.68-1.74,3.94-3.42l-3.87,2.36,5.46-13.55,4.54-13.46c1.06-3.14,2.97-17.33-2.17-19.57-4.14-1.81-17.33.37-18.66,4.14-2,5.69-2.63,11.28-4.9,16.55-1.06,2.46-1.52,5.08-2.4,7.61-2.46,7.05-5.41,13.77-8.12,20.68l-3.18,8.13-6.95,17.74-4.23,10.92-5.54,15.43c6.96,2.98,12.23,1.45,18.77-1.85,3.92-1.98,7.05-7.33,10-10.93Z"/>
        <path class="cls-1" d="M213.75,78.28c-1.5-2.2-5.74-5.78-8.06-5.37l-12.19,2.16-14.65,2.59-11.26,3.54c-3.86,1.21-7.25,1.31-11.49,2.55-1.64.48-4.84.21-5.42-1.1-3.25-7.36,12.13-6.5,22.15-10.56l18.76-7.6,27.22-10.17c5.99-8.49,7.3-17.86,13.44-26.04.67-.89,4.61-.46,5.1.41l2.7,4.83,10-7.26c5.1-3.7,14.97-11.62,21.88-9.08.58.21-.4,2.03-.93,2.5-6.73,6.12-14.63,12.76-16.85,22.61,6.52.48,11.83-2.2,17.6-3.8l36.87-10.24,6.69-1.79,15.7-4.25c7.91-2.14,15.67-4.26,23.83-5.72l18.48-3.31,12.15-2.04,8.08-1.36c5.36-.9,10.45-.87,16-1.25l11.95-.82c4.46-.31,9.04-2.56,12.22,2.81-.47.34-2.6,1.54-3.5,1.61-7.42.56-16.1,2.09-23.32,4.26l-12.61,3.79-20.39,6.41-16.17,5.57-10.14,3.66-18.71,6.52-8.1,3.06-39.01,16.06c-5.74,2.37-11.81,3.28-17.33,6.47s-12.59,2.6-18.27,5.41c-5.08,2.51-6.7,10.66-9.26,15.3-2.27,4.12-3.69,7.8-5.19,12.14l-4.98,14.38-6.7,18.37c-3.2,8.76-5.98,17.47-8.69,26.53-1.22,4.07,1.09,8.34,5.23,9.07l9.93-4.5c.09,6.97-5.59,8.4-9.91,10.91-6.55,3.8-22.88,14.69-28.48,6.29-2.69-4.03-3.45-8.11-2.42-12.32,2.41-9.85,5.53-18.61,9.09-28.13,7.76-20.71,14.32-41.28,18.93-63.11ZM247.22,58.15l-1.89,1.72c-.81.74-.57-4.79-9.52,1.6,1.21,1.95,11.45,1.9,11.48-2.79,4.43,4.99,8.73,4.82,13.95,2.06,2.81-1.49,7.09-2.45,10.32-3.61l29.24-10.55c4.36-1.57,8.55-3.31,12.76-5.56,2.08-1.11,5.18-1.48,7.7-2.3l21.05-6.88,9.14-3.03,10.22-3.2c.57-.18,1.49-2.03,2.06-2.17l2.34-.59c-2.52-.17-4.82.45-7.72.88l-9.03,1.34c-5.77,3.35-17.64,7.29-25.11,5.3-2.28-.07-1.64.27,1.3,1.27-2.97,1.68-6.83,3.69-10.45,4.5l-8.27,1.85c-4.89,1.09-9.36,2.28-13.2,5.46l-5.41-.11c-12.44,3.83-4.44,3.04-17.83,6.16-8.72,2.03-11.92,5.12-22.7,6.15-.1-.07,1.16.82,1.53,1.08.34.24-1.62,1.13-1.95,1.43Z"/>
        <path class="cls-1" d="M638.88,105.64c-3.08-3.33-.07-8.37-2.6-11.56-4.33-5.48-17.88,2.59-21.83,5.48l-5.41,16.78-4.91,15.23c-1.17,3.63-3.12,7.69-4.19,10.35-1.15,5.3-3.8,11.44-5.32,16.75l-3.32,11.61c-.53,1.87-3.67,2.48-5.57,2.8-9.31,1.57-7.59,5.16-19.88.02l4.28-13.14,3.62-9.4,10.65-31.85,4.73-15.03c2.44-7.77,4.97-16.83-.47-24.84,9.99-1.58,7.11-6.37,19.93-4.8,1.54.19,4.45.41,5.65.75s1.46,3.33,1.55,4.65l.71,9.79c10.25-3.8,23.79-19.19,36.48-13.4,7.96,3.63,10.05,14.24,9.46,21.47-.09,1.04.69,3.41.9,4.31.25,1.07-3.39,1.94-3.95,3.04-5.38,10.48-9.53,23.38-13.24,34.8-1.81,5.59-4.25,10.68-1.8,16.53,1.25,2.98,7.48.56,10.85,1.68.54.18-.56,2.23-1.17,2.53l-16.01,7.8c-5.78,2.81-13.69,3.12-18.23-2.31-2.92-3.5-.74-10.19.72-14.41l14.62-42.28c.32-.94,2.26-2.41,3.74-3.34Z"/>
        <path class="cls-1" d="M528.05,168.66l-12.83,9.36c-6.87,5.01-16.06,7.51-24.58,4.97-3.21-.96-4.78-6.5-4.64-9.72.61-14.31,8.25-29.03,15.81-40.62,2.84-4.35,6.14-8.09,11.25-9.27,7.47-1.73,17.75-4.24,24.36-.54,5.19-3.18,6.01-19.8,1.08-24.2-2.57-2.3-7.24-1.97-10.56-.22l-8.6,4.54c-2.88,1.52-4.78,5.11-9.3,3.3.04-.72,1.23-3.68,2.28-4.56,10.75-8.98,26.2-22.34,40.06-18.42-1.48,1.67-1.57,2.06-.57,2.29l5.4-.05c13.58,14.18,4.84,35.95-.47,51.7l-4.12,12.21c-.1.31-2.34.85-2.66.94-1.6.46,2.07.86,1.67,2.24l-3.16,10.67c-.74,2.5.91,7.02,3,8l10.32-2.41c-.75,6.88-7.26,7.82-12.09,10.5-5.92,3.29-11.92,6.15-19.17,3.6-4.6-1.62.34-9.68-2.47-14.32ZM528.74,160.29l8.43-28.24c-3.09-2.81-8.11-3.2-11.72-1.64-5.28,2.27-9.39,12.34-11.37,18.05l-5.42,15.67c-.33.96.35,3.57.84,4.4,2.75,4.73,16.34-5.3,19.24-8.23Z"/>
        <path class="cls-1" d="M158.88,178.16c3.39,3.84-10.77,11.1-13.63,12.59l-8.79,4.56c-3.75,1.95-7.47,3.97-11.45,5.4-6.69,2.4-13.42-.39-16.17-6.86-6.29-4.83-8.21-13.06-5.96-20.57l5.07-16.97c1.75-5.86,4.13-11.6,6.32-17.31l5.38-14.01c3.34-8.7,10.52-13.8,18.19-18.6,4.03-2.52,8.2-4.97,12.84-6.05,9.93-2.31,23.85-6.93,30.34-1.26,11.66,10.19-6.66,51.07-32.28,58.29-6,1.69-12.76,1.34-19.1,1.55l-3.05,10.76c-1.26,4.46-1.51,13.22,3.47,16.55,1.61,1.08,5.49,1.1,7.81.44,12-3.38,17.3-12.7,21-8.5ZM137.17,150.56c10.43.52,15.55-8.17,18.98-15.89,2.86-6.43,6.64-13.88,5.24-21.43-.42-2.3-5.53-4.81-7.66-4.04-2.75,1-7.39,4.12-8.26,6.52l-5.78,15.84c-.66,1.82-2.69,4.87-3.53,6.47,1.42,5.02-5.02,12.23-2.44,12.36l3.44.17Z"/>
        <path class="cls-1" d="M270.89,175.71c7.03-2.29,13.57-5.82,19.4-9.7.75-.5,3.03-.28,3.51.46.59.89.12,3.44-.76,4.18-9.23,7.9-19.78,13.62-31.11,17.24-6.72,2.15-11.61,1.37-16.46-3.67s-9.26-11.42-7.65-18.89l1.66-7.71c2.66-12.33,10.97-32.85,16.92-44.24,4.7-9,9.91-16.04,19.18-20.37,14.67-6.84,11.05-2.6,25.1-6.8,6.17-1.84,14.33-.49,18.39,5.34,3.04,4.36.94,10.32.18,15.12-.97,6.11-3.19,10.66-6.49,15.65-2.95,4.47-9.23,13.63-15.27,13.68-.1,2.61-1.71,4.8-4.43,5.69-12.69,4.16-8.79,5.38-26.64,6.43-3.05,6.22-5.8,13.22-4.92,19.95.61,4.65,3.86,9.43,9.37,7.63ZM293.62,117.17c1.39-5.65,4.64-12.67,1.82-18.13-2.13-4.14-9.55-1.04-11.82,2.22-2.4,3.45-4.61,7.15-5.95,10.87l-9.97,27.5c14.91,1.2,22.92-10.26,25.92-22.45Z"/>
        <path class="cls-1" d="M338.42,193.21c-2.48,4.69-21.94,10.57-27.56,8.65-3.8-1.3-4.83-6.71-3.64-10.03l2.78-7.77,4.63-12.6,6.01-15.57,4.04-10.47c2.05-5.3,3.74-10.47,6.99-15.36.06-2.44-.09-6.82-.47-9.85-.22-1.76-4.39-3.02-6.93-4.67,8.81-3.85,19.38-8.98,28.56-6.22l2.21,10.71c8.95-5.89,16.53-11.41,26.55-14.28,3.25-.93,9.51.47,11.23,2.98,6.25,9.11,2.29,19.09-4.37,26.05-3.35,3.51-5.95,6.52-10.35,9.27-3.55,2.22-13.87,8.99-17.17,7.08-2.04-1.18,6.57-7.1,10.95-16.83,1.23-2.72,2.02-8.51.37-10.61-3.38-4.32-10.25-3.4-13.11-.06-2.65,3.09-11.28-1.65-4.34,3-1.85,3.71-3.7,7.46-5.35,11.47l-10.78,26.26c-2.18,5.32-4,11.23-5.87,16.75-1.67,4.92-.05,9,5.58,12.1Z"/>
      </g>
      <g>
        <path class="cls-1" d="M698.89,141.75c0,1.43-.36,2.57-.93,3.28.14-.07-4.93,4.35-5.5,5.71-4.28,9.71-14.06,40.9-13.92,41.62-3.71,9.49-11.56,14.78-21.56,14.78-6.28-.21-8-1.78-9.92-2.71-1.5-.71-2.57-3-2.57-4.64,0-3.64,3.07-7.85,6.71-7.85,1.64,0,5.92,1.93,5.92,3.85,0,.21-1.57,4.21-1.57,4.43,0,1.64-.14,2.71,2.57,2.71,1.79,0,3-1.14,3.36-1.36,1.29-.86,3.64-2.71,6.35-10.92l2.57-7.78,6.57-17.56c3.36-8.42,4.28-13.71,4.35-15.63,0-2.21-4.21-6.5-4.21-6.85,0-.57.29-1,.86-1.36,2.36-.57,12.49-1.71,15.77-1.71,1.21,0,2.07.29,4.28,1.36,0,.14.86.5.86.64Z"/>
        <path class="cls-1" d="M729.57,168.73c-.29.21-.79.29-1.57.29-.57,0-.93-.07-1.29-.07-.79,0-1.14.43-1.64.93.64,2,1.21,3.28,7.71,11.35.5.5,1.86,1.21,4.07,2,.57.36.86.86.86,1.5,0,1.64-4.85,2.93-9.71,2.93-2.78,0-7.35-.21-7.35-1.79.36-.64.5-1.36.5-2.07,0-1.36-.64-2.86-2-4.64l-3.5-3.85c-.21-.64-.5-1.71-1-3.07-.36-.79-3.57-3.35-4.07-3.35s-1,.36-1.5,1.07c-.14.5-3.07,9.21-3.07,9.42,0,2.14,2.64,5.28,2.64,5.78,0,.21-.21.79-.57,1.57-3.21.64-5.92.93-8.28.93h-3.14c-6.28,0-7.14-.64-7.14-2.36,0-.36.07-.79.21-1.14l.36-.71c3.36-.36,6.92-6.28,7.92-11.35l1.71-3.43c.5-1.43,1.21-4.85,2.14-10.35.93-1.43,3.71-5,3.71-9.14,0-3.43-3.43-4.14-3.43-6.28,0-1.43,1.36-3.07,3.64-3.07,3.64,0,6.57-.07,8.78-.14l3.71-.14c.79-.07,1.21-.14,1.29-.14.21-.07,3.71,1,10.35,2.86,4.78,1.36,8.92,7.99,8.92,13.28,0,5.57-3.07,9.99-9.28,13.21ZM719.72,144.6c-.5,0-.93.07-1.43.21-2.07,3.21-3.28,6.07-3.64,8.57-.36.5-.79,1.21-1.29,2.28-.07,1.07-.29,2.5-.64,4.14-.93,1.93-1.36,3-1.36,3.35,0,1.43,3.21,3.07,4.14,3.07,6,0,11.49-5.5,11.49-11.49,0-4.57-3.5-10.14-7.28-10.14Z"/>
      </g>
    </g>
  </g>
</svg>
